<svg width="16" height="14" viewBox="0 0 16 14" fill="none" xmlns="http://www.w3.org/2000/svg">
<path d="M-0.000122333 6L-0.00012242 8L11.9999 8L11.9999 10L13.9999 10L13.9999 8L15.9999 8L15.9999 6L13.9999 6L13.9999 4L11.9999 4L11.9999 6L-0.000122333 6ZM9.99988 2L11.9999 2L11.9999 4L9.99988 4L9.99988 2ZM9.99988 2L7.99988 2L7.99988 -3.49691e-07L9.99988 -2.62268e-07L9.99988 2ZM9.99988 12L11.9999 12L11.9999 10L9.99988 10L9.99988 12ZM9.99988 12L7.99988 12L7.99988 14L9.99988 14L9.99988 12Z" fill="#6EE6FF"/>
</svg>
