<svg width="56" height="13" viewBox="0 0 56 13" fill="none" xmlns="http://www.w3.org/2000/svg">
<path d="M54.8299 13H56L42.9253 0H39.2623L45.062 5.76653H47.5548L54.8299 13ZM41.946 5.76653H39.4531L33.6534 0H37.3164L50.3911 13H49.221L41.946 5.76653ZM36.337 5.76653H33.8442L28.0445 0H31.7075L44.7822 13H43.6121L36.337 5.76653ZM30.7281 5.76653H28.2353L22.4356 0H26.0986L39.1733 13H38.0032L30.7281 5.76653ZM25.1192 5.76653H22.6264L16.8267 0H20.4897L33.5644 13H32.3943L25.1192 5.76653ZM19.5103 5.76653H17.0175L11.2178 0H14.8808L27.9555 13H26.7854L19.5103 5.76653ZM13.9014 5.76653H11.4086L5.60891 0H9.27186L22.3466 13H21.1765L13.9014 5.76653ZM8.29252 5.76653H5.79968L0 0H3.66295L16.7377 13H15.5676L8.29252 5.76653Z" fill="#4C77E6"/>
</svg>
