<svg width="48" height="48" viewBox="0 0 48 48" fill="none" xmlns="http://www.w3.org/2000/svg">
<rect width="47.564" height="47.564" rx="12" fill="#272727"/>
<path d="M25.3903 18.7324C23.9953 19.3104 23.0781 20.581 23.031 22.0333C23.0302 22.1072 22.9664 22.1646 22.8929 22.1578L22.8418 22.1531C20.9952 21.9504 19.3693 21.0136 18.2529 19.492C18.1773 19.3889 18.0763 19.3061 17.9592 19.2512C17.8421 19.1963 17.7127 19.1712 17.583 19.1781C17.4533 19.185 17.3275 19.2237 17.2172 19.2907C17.1069 19.3577 17.0157 19.4508 16.9521 19.5614L16.8772 19.7015L16.8393 19.7761C16.2843 20.8953 15.9206 22.2556 16.0542 23.6973L16.0774 23.903C16.2958 25.6085 17.2354 27.0796 18.9948 28.1829L19.0681 28.2271C19.0945 28.243 19.0932 28.2817 19.0659 28.2959C18.0507 28.7956 17.1219 29.0134 16.1113 28.9742C15.2961 28.944 14.995 30.0082 15.7114 30.3895C18.4892 31.8674 21.4715 32.3233 24.0431 31.5953C27.1775 30.706 29.5647 28.4127 30.478 25.2399L30.576 24.8669C30.7598 24.1186 30.8632 23.3551 30.8856 22.5879C30.8871 22.4234 30.9273 22.2616 31.0028 22.1154L31.1913 21.7507L31.531 21.101L31.6962 20.7739L31.7873 20.5878C31.9919 20.162 32.1394 19.8093 32.2305 19.5101L32.2376 19.4824C32.24 19.4727 32.2433 19.4634 32.2474 19.4543C32.4173 19.0074 32.1193 18.4309 31.521 18.4309L31.4268 18.4362C31.3658 18.4435 31.3059 18.4579 31.2484 18.4792L31.182 18.5078C30.9617 18.6122 30.7348 18.7029 30.5027 18.7791L30.2278 18.8658L30.0186 18.9261C29.6445 19.0273 29.2515 18.928 28.9103 18.7443C27.9511 18.2281 26.7686 18.2252 25.5532 18.6698L25.3903 18.7324Z" fill="white"/>
</svg>
