<svg width="34" height="34" viewBox="0 0 34 34" fill="none" xmlns="http://www.w3.org/2000/svg">
<rect width="34" height="34" rx="9" fill="url(#paint0_linear_11_681)"/>
<path d="M25.7375 14.7518C25.4009 14.4 25.0527 14.0375 24.9214 13.7188C24.8 13.4268 24.7929 12.9429 24.7857 12.4741C24.7723 11.6027 24.758 10.6152 24.0714 9.92857C23.3848 9.24196 22.3973 9.22768 21.5259 9.21429C21.0571 9.20714 20.5732 9.2 20.2812 9.07857C19.9634 8.94732 19.6 8.59911 19.2482 8.2625C18.6321 7.67054 17.9321 7 17 7C16.0679 7 15.3688 7.67054 14.7518 8.2625C14.4 8.59911 14.0375 8.94732 13.7188 9.07857C13.4286 9.2 12.9429 9.20714 12.4741 9.21429C11.6027 9.22768 10.6152 9.24196 9.92857 9.92857C9.24196 10.6152 9.23214 11.6027 9.21429 12.4741C9.20714 12.9429 9.2 13.4268 9.07857 13.7188C8.94732 14.0366 8.59911 14.4 8.2625 14.7518C7.67054 15.3688 7 16.0679 7 17C7 17.9321 7.67054 18.6312 8.2625 19.2482C8.59911 19.6 8.94732 19.9625 9.07857 20.2812C9.2 20.5732 9.20714 21.0571 9.21429 21.5259C9.22768 22.3973 9.24196 23.3848 9.92857 24.0714C10.6152 24.758 11.6027 24.7723 12.4741 24.7857C12.9429 24.7929 13.4268 24.8 13.7188 24.9214C14.0366 25.0527 14.4 25.4009 14.7518 25.7375C15.3679 26.3295 16.0679 27 17 27C17.9321 27 18.6312 26.3295 19.2482 25.7375C19.6 25.4009 19.9625 25.0527 20.2812 24.9214C20.5732 24.8 21.0571 24.7929 21.5259 24.7857C22.3973 24.7723 23.3848 24.758 24.0714 24.0714C24.758 23.3848 24.7723 22.3973 24.7857 21.5259C24.7929 21.0571 24.8 20.5732 24.9214 20.2812C25.0527 19.9634 25.4009 19.6 25.7375 19.2482C26.3295 18.6312 27 17.9321 27 17C27 16.0679 26.3295 15.3688 25.7375 14.7518ZM24.7063 18.2598C24.2786 18.7063 23.8357 19.1679 23.6009 19.7348C23.3759 20.2795 23.3661 20.9018 23.3571 21.5045C23.3482 22.1295 23.3384 22.7839 23.0607 23.0607C22.783 23.3375 22.133 23.3482 21.5045 23.3571C20.9018 23.3661 20.2795 23.3759 19.7348 23.6009C19.1679 23.8357 18.7063 24.2786 18.2598 24.7063C17.8134 25.1339 17.3571 25.5714 17 25.5714C16.6429 25.5714 16.183 25.1321 15.7402 24.7063C15.2973 24.2804 14.8321 23.8357 14.2652 23.6009C13.7205 23.3759 13.0982 23.3661 12.4955 23.3571C11.8705 23.3482 11.2161 23.3384 10.9393 23.0607C10.6625 22.783 10.6518 22.133 10.6429 21.5045C10.6339 20.9018 10.6241 20.2795 10.3991 19.7348C10.1643 19.1679 9.72143 18.7063 9.29375 18.2598C8.86607 17.8134 8.42857 17.3571 8.42857 17C8.42857 16.6429 8.86786 16.1839 9.29375 15.7402C9.71964 15.2964 10.1643 14.8321 10.3991 14.2652C10.6241 13.7205 10.6339 13.0982 10.6429 12.4955C10.6518 11.8705 10.6616 11.2161 10.9393 10.9393C11.217 10.6625 11.867 10.6518 12.4955 10.6429C13.0982 10.6339 13.7205 10.6241 14.2652 10.3991C14.8321 10.1643 15.2937 9.72143 15.7402 9.29375C16.1866 8.86607 16.6429 8.42857 17 8.42857C17.3571 8.42857 17.817 8.86786 18.2598 9.29375C18.7027 9.71964 19.1679 10.1643 19.7348 10.3991C20.2795 10.6241 20.9018 10.6339 21.5045 10.6429C22.1295 10.6518 22.7839 10.6616 23.0607 10.9393C23.3375 11.217 23.3482 11.867 23.3571 12.4955C23.3661 13.0982 23.3759 13.7205 23.6009 14.2652C23.8357 14.8321 24.2786 15.2937 24.7063 15.7402C25.1339 16.1866 25.5714 16.6429 25.5714 17C25.5714 17.3571 25.1321 17.8161 24.7063 18.2598ZM16.2857 14.1429C16.2857 13.719 16.16 13.3047 15.9246 12.9523C15.6891 12.6 15.3544 12.3253 14.9629 12.1631C14.5713 12.0009 14.1405 11.9585 13.7248 12.0412C13.3091 12.1239 12.9273 12.3279 12.6276 12.6276C12.3279 12.9273 12.1239 13.3091 12.0412 13.7248C11.9585 14.1405 12.0009 14.5713 12.1631 14.9629C12.3253 15.3544 12.6 15.6891 12.9523 15.9246C13.3047 16.16 13.719 16.2857 14.1429 16.2857C14.7112 16.2857 15.2562 16.0599 15.6581 15.6581C16.0599 15.2562 16.2857 14.7112 16.2857 14.1429ZM13.4286 14.1429C13.4286 14.0016 13.4705 13.8635 13.549 13.746C13.6274 13.6286 13.739 13.537 13.8695 13.4829C14 13.4289 14.1436 13.4147 14.2822 13.4423C14.4208 13.4699 14.548 13.5379 14.6479 13.6378C14.7478 13.7377 14.8159 13.8649 14.8434 14.0035C14.871 14.1421 14.8568 14.2857 14.8028 14.4162C14.7487 14.5467 14.6572 14.6583 14.5397 14.7368C14.4222 14.8153 14.2841 14.8571 14.1429 14.8571C13.9534 14.8571 13.7717 14.7819 13.6378 14.6479C13.5038 14.514 13.4286 14.3323 13.4286 14.1429ZM19.8571 17.7143C19.4333 17.7143 19.019 17.84 18.6666 18.0754C18.3142 18.3109 18.0396 18.6456 17.8774 19.0371C17.7152 19.4287 17.6728 19.8595 17.7555 20.2752C17.8381 20.6909 18.0422 21.0727 18.3419 21.3724C18.6416 21.6721 19.0234 21.8761 19.4391 21.9588C19.8548 22.0415 20.2856 21.9991 20.6772 21.8369C21.0687 21.6747 21.4034 21.4 21.6389 21.0477C21.8743 20.6953 22 20.281 22 19.8571C22 19.2888 21.7742 18.7438 21.3724 18.3419C20.9705 17.9401 20.4255 17.7143 19.8571 17.7143ZM19.8571 20.5714C19.7159 20.5714 19.5778 20.5295 19.4603 20.4511C19.3428 20.3726 19.2513 20.261 19.1972 20.1305C19.1432 20 19.129 19.8563 19.1566 19.7178C19.1841 19.5792 19.2522 19.452 19.3521 19.3521C19.452 19.2522 19.5792 19.1841 19.7178 19.1566C19.8563 19.129 20 19.1432 20.1305 19.1972C20.261 19.2513 20.3726 19.3428 20.4511 19.4603C20.5295 19.5778 20.5714 19.7159 20.5714 19.8571C20.5714 20.0466 20.4962 20.2283 20.3622 20.3622C20.2283 20.4962 20.0466 20.5714 19.8571 20.5714ZM21.0768 13.9339L13.9339 21.0768C13.8676 21.1432 13.7888 21.1958 13.7021 21.2317C13.6154 21.2676 13.5224 21.2861 13.4286 21.2861C13.3347 21.2861 13.2418 21.2676 13.1551 21.2317C13.0684 21.1958 12.9896 21.1432 12.9232 21.0768C12.8568 21.0104 12.8042 20.9316 12.7683 20.8449C12.7324 20.7582 12.7139 20.6653 12.7139 20.5714C12.7139 20.4776 12.7324 20.3846 12.7683 20.2979C12.8042 20.2112 12.8568 20.1324 12.9232 20.0661L20.0661 12.9232C20.1324 12.8568 20.2112 12.8042 20.2979 12.7683C20.3846 12.7324 20.4776 12.7139 20.5714 12.7139C20.6653 12.7139 20.7582 12.7324 20.8449 12.7683C20.9316 12.8042 21.0104 12.8568 21.0768 12.9232C21.1432 12.9896 21.1958 13.0684 21.2317 13.1551C21.2676 13.2418 21.2861 13.3347 21.2861 13.4286C21.2861 13.5224 21.2676 13.6154 21.2317 13.7021C21.1958 13.7888 21.1432 13.8676 21.0768 13.9339Z" fill="#111111"/>
<defs>
<linearGradient id="paint0_linear_11_681" x1="17" y1="0" x2="17" y2="34" gradientUnits="userSpaceOnUse">
<stop stop-color="#FF922E"/>
<stop offset="1" stop-color="#FF5824"/>
</linearGradient>
</defs>
</svg>
